# xmcd
#
# Track frame offsets:
#	182
#	18982
#	31357
#	62182
#	87307
#	106732
#	126307
#	142132
#	168007
#	184732
#	204307
#	225757
#	244057
#	258982
#	274507
#	289807
#	306832
#
# Disc length: 4337 seconds
#
# Revision: 0
# Processed by: cddbd v1.4PL0 Copyright (c) Steve Scherf et al.
# Submitted via: EasyCDDAExtractor 4.6.0.1
#
DISCID=e510ef11
DTITLE=2000 Blues Muster - The 2000 Muster Blues Collection
DYEAR=1900
DGENRE=
TTITLE0=Jack - Backsliders
TTITLE1=If The World Don't End Tomorrow - Lil Fi
TTITLE2=Out In The Desert - Collard Greens and Gravy
TTITLE3=What's Wrong With Me - Buzz And The Blues Band
TTITLE4=Two Roads - Phil Manning
TTITLE5=I Swear - James T and The Last Volunteers
TTITLE6=Yes Sir Ree - Blue Link Trio
TTITLE7=La Lament - Blind Dog and The Reverend
TTITLE8=Talk To Me Baby - Stevie T
TTITLE9=Angel From Montgomery - Jane Michelle
TTITLE10=Working Blues - Larrie Cooke and The Blues Masters
TTITLE11=Breakin Inside - Natural Born Lovers
TTITLE12=Twist It - Hatz Jug Slouchers
TTITLE13=Jive - Doc Span and Ross Williams
TTITLE14=Times Change - Rob Tognoni
TTITLE15=Love Me With A feeling - Michelle Brown and The Big Easy
TTITLE16=Some Things Wrong In Our House - Andy Cowan and Big Mamma's Door
EXTD=
EXTT0=
EXTT1=
EXTT2=
EXTT3=
EXTT4=
EXTT5=
EXTT6=
EXTT7=
EXTT8=
EXTT9=
EXTT10=
EXTT11=
EXTT12=
EXTT13=
EXTT14=
EXTT15=
EXTT16=
PLAYORDER=
